<?xml version="1.0" encoding="UTF-8"?><svg id="Calque_2" xmlns="http://www.w3.org/2000/svg" viewBox="0 0 267.17 67.25"><defs><style>.cls-1{fill:#221f20;}</style></defs><g id="Calque_1-2"><g><path class="cls-1" d="M93.94,39.43l3.46,1.78c-2.04,3.18-5.6,5.35-9.99,5.35-6.8,0-11.82-5.1-11.82-11.3s5.02-11.3,11.82-11.3c4.4,0,7.95,2.17,9.99,5.31l-3.46,1.83c-1.33-2.12-3.69-3.48-6.53-3.48-4.44,0-7.68,3.23-7.68,7.64s3.24,7.6,7.68,7.6c2.84,0,5.2-1.32,6.53-3.44Z"/><path class="cls-1" d="M123.03,35.27c0,6.2-5.02,11.3-11.82,11.3s-11.82-5.1-11.82-11.3,5.02-11.3,11.82-11.3,11.82,5.1,11.82,11.3Zm-4.13,0c0-4.42-3.24-7.64-7.68-7.64s-7.64,3.23-7.64,7.64,3.2,7.6,7.64,7.6,7.68-3.23,7.68-7.6Z"/><path class="cls-1" d="M147.11,32.56v13.46h-4.04v-12.36c0-3.02-1.33-6.03-5.55-6.03s-6,3.52-6,6.03v12.36h-4.04V24.49h4.04v3.02c1.33-1.91,3.55-3.52,6.97-3.52,5.06,0,8.62,4.03,8.62,8.58Z"/><path class="cls-1" d="M158.43,28.18v9.43c0,3.06,.04,5.1,3.55,5.1,.67,0,1.15-.04,1.64-.08v3.4c-.58,.13-1.29,.21-2.18,.21-4.89,0-7.06-2.51-7.06-7.22v-10.83h-3.51v-3.69h3.51v-4.5h4.04v4.5h5.2v3.69h-5.2Z"/><path class="cls-1" d="M189.17,36.93h-17.9c.62,3.52,3.38,5.94,7.77,5.94,2.44,0,4.66-.89,5.91-2.42l3.33,2.04c-2,2.59-5.29,4.08-9.24,4.08-7.46,0-12.08-5.1-12.08-11.3s4.8-11.3,11.42-11.3c6.13,0,11.86,4.93,10.79,12.95Zm-4.09-3.31c-.53-3.65-2.89-5.99-6.71-5.99s-6.48,2.42-7.11,5.99h13.81Z"/><path class="cls-1" d="M213.38,32.56v13.46h-4.04v-12.36c0-3.02-1.33-6.03-5.55-6.03s-6,3.52-6,6.03v12.36h-4.04V24.49h4.04v3.02c1.33-1.91,3.55-3.52,6.97-3.52,5.06,0,8.62,4.03,8.62,8.58Z"/><path class="cls-1" d="M224.71,28.18v9.43c0,3.06,.04,5.1,3.55,5.1,.67,0,1.15-.04,1.64-.08v3.4c-.58,.13-1.29,.21-2.18,.21-4.89,0-7.06-2.51-7.06-7.22v-10.83h-3.51v-3.69h3.51v-4.5h4.04v4.5h5.2v3.69h-5.2Z"/><path class="cls-1" d="M234.74,18.46c0-1.19,1.02-2.21,2.31-2.21s2.31,1.02,2.31,2.21-1.02,2.21-2.31,2.21-2.31-.98-2.31-2.21Zm.27,6.03h4.09v21.53h-4.09V24.49Z"/><path class="cls-1" d="M267.17,35.27c0,6.2-5.02,11.3-11.82,11.3s-11.82-5.1-11.82-11.3,5.02-11.3,11.82-11.3,11.82,5.1,11.82,11.3Zm-4.13,0c0-4.42-3.24-7.64-7.68-7.64s-7.64,3.23-7.64,7.64,3.2,7.6,7.64,7.6,7.68-3.23,7.68-7.6Z"/></g><g><path class="cls-1" d="M52.8,26.89v19.17c0,.59-.31,1.14-.83,1.43l-21.73,12.54c-.51,.3-1.14,.3-1.65,0l-16.27-9.39-5.91,3.56,21.87,12.79c.58,.34,1.31,.34,1.89,0l27.2-15.65c.91-.53,1.47-1.5,1.47-2.55V23.36l-6.04,3.53Z"/><path class="cls-1" d="M.65,50.64l6.8-3.92,4.93-3.09c.13,.16,.28,.3,.46,.4l15.75,9.09c.51,.29,1.14,.29,1.64,0l15.75-9.09c.51-.29,.82-.84,.82-1.42v-5.28l-6.24,3.61s-.07,.05-.11,.07l-10.08,5.82c-.6,.34-1.33,.34-1.93,0l-10.08-5.82c-.6-.34-.97-.98-.97-1.67v-11.64c0-.69,.37-1.33,.97-1.67l10.08-5.82c.6-.34,1.33-.34,1.93,0l10.08,5.82c.12,.07,.22,.15,.32,.24,.08,.11,.16,.21,.27,.29,.04,.06,.08,.12,.11,.18l17.29-9.95c-.25-.44-.62-.82-1.08-1.09L30.89,.39c-.91-.53-2.03-.53-2.94,0L1.47,15.68C.56,16.21,0,17.18,0,18.23v26.1h0v4.93c0,.27,.09,.5,.23,.69,.11,.25,.25,.48,.42,.69ZM6.04,20.97c0-.59,.31-1.14,.83-1.43L28.59,7c.51-.3,1.14-.3,1.65,0l16.78,9.69-5.67,3.64-11.11-6.42c-.51-.29-1.14-.29-1.64,0l-15.75,9.09c-.51,.29-.82,.84-.82,1.42v12.43l-5.99,3.72V20.97Z"/></g></g></svg>