<?xml version="1.0" encoding="UTF-8"?><svg id="Calque_2" xmlns="http://www.w3.org/2000/svg" viewBox="0 0 58.84 67.25"><defs><style>.cls-1{fill:#221f20;}</style></defs><g id="Calque_1-2"><g><path class="cls-1" d="M52.8,26.89v19.17c0,.59-.31,1.14-.83,1.43l-21.73,12.54c-.51,.3-1.14,.3-1.65,0l-16.27-9.39-5.91,3.56,21.87,12.79c.58,.34,1.31,.34,1.89,0l27.2-15.65c.91-.53,1.47-1.5,1.47-2.55V23.36l-6.04,3.53Z"/><path class="cls-1" d="M.65,50.64l6.8-3.92,4.93-3.09c.13,.16,.28,.3,.46,.4l15.75,9.09c.51,.29,1.14,.29,1.64,0l15.75-9.09c.51-.29,.82-.84,.82-1.42v-5.28l-6.24,3.61s-.07,.05-.11,.07l-10.08,5.82c-.6,.34-1.33,.34-1.93,0l-10.08-5.82c-.6-.34-.97-.98-.97-1.67v-11.64c0-.69,.37-1.33,.97-1.67l10.08-5.82c.6-.34,1.33-.34,1.93,0l10.08,5.82c.12,.07,.22,.15,.32,.24,.08,.11,.16,.21,.27,.29,.04,.06,.08,.12,.11,.18l17.29-9.95c-.25-.44-.62-.82-1.08-1.09L30.89,.39c-.91-.53-2.03-.53-2.94,0L1.47,15.68C.56,16.21,0,17.18,0,18.23v26.1h0v4.93c0,.27,.09,.5,.23,.69,.11,.25,.25,.48,.42,.69ZM6.04,20.97c0-.59,.31-1.14,.83-1.43L28.59,7c.51-.3,1.14-.3,1.65,0l16.78,9.69-5.67,3.64-11.11-6.42c-.51-.29-1.14-.29-1.64,0l-15.75,9.09c-.51,.29-.82,.84-.82,1.42v12.43l-5.99,3.72V20.97Z"/></g></g></svg>