<?xml version="1.0" encoding="UTF-8"?><svg id="Calque_2" xmlns="http://www.w3.org/2000/svg" viewBox="0 0 58.84 82.32"><defs><style>.cls-1{fill:#221f20;}</style></defs><g id="Calque_1-2"><g><path class="cls-1" d="M6.02,80.17l1.05,.54c-.62,.96-1.69,1.62-3.02,1.62-2.05,0-3.57-1.54-3.57-3.41s1.52-3.41,3.57-3.41c1.33,0,2.4,.65,3.02,1.6l-1.05,.55c-.4-.64-1.11-1.05-1.97-1.05-1.34,0-2.32,.98-2.32,2.31s.98,2.3,2.32,2.3c.86,0,1.57-.4,1.97-1.04Z"/><path class="cls-1" d="M14.81,78.91c0,1.87-1.52,3.41-3.57,3.41s-3.57-1.54-3.57-3.41,1.52-3.41,3.57-3.41,3.57,1.54,3.57,3.41Zm-1.25,0c0-1.33-.98-2.31-2.32-2.31s-2.31,.98-2.31,2.31,.97,2.3,2.31,2.3,2.32-.98,2.32-2.3Z"/><path class="cls-1" d="M22.08,78.09v4.07h-1.22v-3.73c0-.91-.4-1.82-1.68-1.82s-1.81,1.07-1.81,1.82v3.73h-1.22v-6.51h1.22v.91c.4-.58,1.07-1.06,2.11-1.06,1.53,0,2.6,1.22,2.6,2.59Z"/><path class="cls-1" d="M25.51,76.77v2.85c0,.92,.01,1.54,1.07,1.54,.2,0,.35-.01,.5-.03v1.03c-.17,.04-.39,.06-.66,.06-1.48,0-2.13-.76-2.13-2.18v-3.27h-1.06v-1.12h1.06v-1.36h1.22v1.36h1.57v1.12h-1.57Z"/><path class="cls-1" d="M34.8,79.41h-5.41c.19,1.06,1.02,1.8,2.35,1.8,.74,0,1.41-.27,1.79-.73l1.01,.62c-.6,.78-1.6,1.23-2.79,1.23-2.26,0-3.65-1.54-3.65-3.41s1.45-3.41,3.45-3.41c1.85,0,3.58,1.49,3.26,3.91Zm-1.24-1c-.16-1.1-.87-1.81-2.03-1.81s-1.96,.73-2.15,1.81h4.18Z"/><path class="cls-1" d="M42.12,78.09v4.07h-1.22v-3.73c0-.91-.4-1.82-1.68-1.82s-1.81,1.07-1.81,1.82v3.73h-1.22v-6.51h1.22v.91c.4-.58,1.07-1.06,2.11-1.06,1.53,0,2.6,1.22,2.6,2.59Z"/><path class="cls-1" d="M45.54,76.77v2.85c0,.92,.01,1.54,1.07,1.54,.2,0,.35-.01,.5-.03v1.03c-.17,.04-.39,.06-.66,.06-1.48,0-2.13-.76-2.13-2.18v-3.27h-1.06v-1.12h1.06v-1.36h1.22v1.36h1.57v1.12h-1.57Z"/><path class="cls-1" d="M48.57,73.83c0-.36,.31-.67,.7-.67s.7,.31,.7,.67-.31,.67-.7,.67-.7-.29-.7-.67Zm.08,1.82h1.24v6.51h-1.24v-6.51Z"/><path class="cls-1" d="M58.37,78.91c0,1.87-1.52,3.41-3.57,3.41s-3.57-1.54-3.57-3.41,1.52-3.41,3.57-3.41,3.57,1.54,3.57,3.41Zm-1.25,0c0-1.33-.98-2.31-2.32-2.31s-2.31,.98-2.31,2.31,.97,2.3,2.31,2.3,2.32-.98,2.32-2.3Z"/></g><g><path class="cls-1" d="M52.8,26.89v19.17c0,.59-.31,1.14-.83,1.43l-21.73,12.54c-.51,.3-1.14,.3-1.65,0l-16.27-9.39-5.91,3.56,21.87,12.79c.58,.34,1.31,.34,1.89,0l27.2-15.65c.91-.53,1.47-1.5,1.47-2.55V23.36l-6.04,3.53Z"/><path class="cls-1" d="M12.39,43.63c.13,.16,.28,.3,.46,.4l15.75,9.09c.51,.29,1.14,.29,1.64,0l15.75-9.09c.51-.29,.82-.84,.82-1.42v-5.28l-6.24,3.61s-.07,.05-.11,.07l-10.08,5.82c-.6,.34-1.33,.34-1.93,0l-10.08-5.82c-.6-.34-.97-.98-.97-1.67v-11.64c0-.69,.37-1.33,.97-1.67l10.08-5.82c.6-.34,1.33-.34,1.93,0l10.08,5.82c.12,.07,.22,.15,.32,.24,.08,.11,.16,.21,.27,.29,.04,.06,.08,.12,.11,.18l17.29-9.96c-.25-.44-.62-.82-1.08-1.09L30.89,.39c-.91-.53-2.03-.53-2.94,0L1.47,15.68c-.91,.53-1.47,1.5-1.47,2.55v26.1H0v4.93c0,.27,.09,.5,.23,.69,.11,.25,.25,.48,.42,.69l6.8-3.92,4.93-3.09ZM6.04,20.97c0-.59,.31-1.14,.83-1.43L28.59,7c.51-.3,1.14-.3,1.65,0l16.78,9.69-5.67,3.64-11.11-6.42c-.51-.29-1.14-.29-1.64,0l-15.75,9.09c-.51,.29-.82,.84-.82,1.42v12.43l-5.99,3.72V20.97Z"/></g></g></svg>